<svg xmlns="http://www.w3.org/2000/svg" viewBox="0 0 320 180" preserveAspectRatio="xMidYMid meet">
  <defs>
    <linearGradient id="bg-ev6" x1="0" y1="0" x2="0" y2="1">
      <stop offset="0" stop-color="#E6F7F0"/>
      <stop offset="1" stop-color="#EBF5FF"/>
    </linearGradient>
    <linearGradient id="body-ev6" x1="0" y1="0" x2="0" y2="1">
      <stop offset="0" stop-color="#F8FAFC"/>
      <stop offset="1" stop-color="#CBD5E1"/>
    </linearGradient>
    <linearGradient id="glass-ev6" x1="0" y1="0" x2="0" y2="1">
      <stop offset="0" stop-color="#B8D5FF" stop-opacity="0.9"/>
      <stop offset="1" stop-color="#6FA3E8" stop-opacity="0.85"/>
    </linearGradient>
  </defs>
  <rect width="320" height="180" fill="url(#bg-ev6)"/>
  <ellipse cx="160" cy="148" rx="115" ry="6" fill="#000" opacity="0.08"/>
  <!-- 크로스오버 SUV 실루엣 (EV6) -->
  <path d="M38,132 L50,118 Q66,98 92,94 L126,82 Q164,78 204,84 L246,96 Q272,104 286,118 L296,128 L296,138 Q296,142 290,142 L254,142 L254,140 A20 20 0 0 0 214,140 L214,142 L128,142 L128,140 A20 20 0 0 0 88,140 L88,142 L46,142 Q38,142 38,136 Z"
        fill="url(#body-ev6)"/>
  <!-- 유리 (각진 크로스오버 창) -->
  <path d="M90,110 L104,90 Q126,82 156,81 L198,83 Q224,89 238,112 L226,118 Q206,114 180,113 L134,113 Q110,115 90,120 Z"
        fill="url(#glass-ev6)"/>
  <!-- 도어 라인 -->
  <line x1="156" y1="84" x2="156" y2="136" stroke="#64748B" stroke-width="1" opacity="0.4"/>
  <line x1="204" y1="84" x2="204" y2="136" stroke="#64748B" stroke-width="1" opacity="0.35"/>
  <!-- 캐릭터 라인 -->
  <path d="M45,132 Q150,124 293,132" stroke="#94A3B8" stroke-width="1" fill="none" opacity="0.6"/>
  <!-- 전조등 (날카로운 LED) -->
  <path d="M282,120 L294,122 L294,126 L282,126 Z" fill="#FFE58A"/>
  <!-- 후미등 -->
  <rect x="42" y="122" width="7" height="6" rx="1" fill="#FF5A5A"/>
  <!-- 바퀴 (큰 SUV 바퀴) -->
  <circle cx="108" cy="142" r="18" fill="#1E293B"/>
  <circle cx="108" cy="142" r="10" fill="#475569"/>
  <circle cx="108" cy="142" r="3.5" fill="#CBD5E1"/>
  <circle cx="234" cy="142" r="18" fill="#1E293B"/>
  <circle cx="234" cy="142" r="10" fill="#475569"/>
  <circle cx="234" cy="142" r="3.5" fill="#CBD5E1"/>
  <!-- EV 뱃지 -->
  <rect x="150" y="128" width="20" height="8" rx="2" fill="#1AAD6C"/>
  <text x="160" y="134" text-anchor="middle" font-family="Pretendard, Arial" font-size="6" font-weight="700" fill="#fff">EV</text>
</svg>
