<svg xmlns="http://www.w3.org/2000/svg" viewBox="0 0 320 180" preserveAspectRatio="xMidYMid meet">
  <defs>
    <linearGradient id="bg-m3" x1="0" y1="0" x2="0" y2="1">
      <stop offset="0" stop-color="#E6F7F0"/>
      <stop offset="1" stop-color="#EBF5FF"/>
    </linearGradient>
    <linearGradient id="body-m3" x1="0" y1="0" x2="0" y2="1">
      <stop offset="0" stop-color="#FFFFFF"/>
      <stop offset="1" stop-color="#E2E8F0"/>
    </linearGradient>
    <linearGradient id="glass-m3" x1="0" y1="0" x2="0" y2="1">
      <stop offset="0" stop-color="#334155" stop-opacity="0.75"/>
      <stop offset="1" stop-color="#1E293B" stop-opacity="0.85"/>
    </linearGradient>
  </defs>
  <rect width="320" height="180" fill="url(#bg-m3)"/>
  <ellipse cx="160" cy="148" rx="112" ry="6" fill="#000" opacity="0.08"/>
  <!-- Model 3 쿠페형 세단 -->
  <path d="M40,132 L54,126 Q72,112 102,104 L140,94 Q170,92 200,96 L240,106 Q264,112 280,124 L292,130 L292,138 Q292,142 286,142 L250,142 L250,140 A20 20 0 0 0 210,140 L210,142 L128,142 L128,140 A20 20 0 0 0 88,140 L88,142 L48,142 Q40,142 40,136 Z"
        fill="url(#body-m3)" stroke="#CBD5E1" stroke-width="0.5"/>
  <!-- 유리 (파노라마 루프) -->
  <path d="M98,114 Q124,100 156,96 L196,96 Q224,100 244,116 L234,122 Q212,116 182,115 L136,115 Q114,116 98,122 Z"
        fill="url(#glass-m3)"/>
  <!-- 도어 라인 -->
  <line x1="170" y1="100" x2="170" y2="134" stroke="#94A3B8" stroke-width="0.8"/>
  <!-- 전조등 (미니멀 LED) -->
  <path d="M278,125 L292,127 L292,131 L278,131 Z" fill="#FFF4B8"/>
  <!-- 후미등 -->
  <rect x="42" y="124" width="7" height="5" rx="1" fill="#FF5A5A"/>
  <!-- 바퀴 -->
  <circle cx="108" cy="142" r="16" fill="#1E293B"/>
  <circle cx="108" cy="142" r="9" fill="#334155"/>
  <circle cx="108" cy="142" r="3" fill="#CBD5E1"/>
  <circle cx="230" cy="142" r="16" fill="#1E293B"/>
  <circle cx="230" cy="142" r="9" fill="#334155"/>
  <circle cx="230" cy="142" r="3" fill="#CBD5E1"/>
  <!-- EV 뱃지 -->
  <rect x="150" y="128" width="20" height="8" rx="2" fill="#1AAD6C"/>
  <text x="160" y="134" text-anchor="middle" font-family="Pretendard, Arial" font-size="6" font-weight="700" fill="#fff">EV</text>
</svg>
