<svg xmlns="http://www.w3.org/2000/svg" viewBox="0 0 320 180" preserveAspectRatio="xMidYMid meet">
  <defs>
    <linearGradient id="bg-torres" x1="0" y1="0" x2="0" y2="1">
      <stop offset="0" stop-color="#E6F7F0"/>
      <stop offset="1" stop-color="#EBF5FF"/>
    </linearGradient>
    <linearGradient id="body-torres" x1="0" y1="0" x2="0" y2="1">
      <stop offset="0" stop-color="#FFFFFF"/>
      <stop offset="1" stop-color="#CBD5E1"/>
    </linearGradient>
    <linearGradient id="glass-torres" x1="0" y1="0" x2="0" y2="1">
      <stop offset="0" stop-color="#475569" stop-opacity="0.75"/>
      <stop offset="1" stop-color="#1E293B" stop-opacity="0.85"/>
    </linearGradient>
  </defs>
  <rect width="320" height="180" fill="url(#bg-torres)"/>
  <ellipse cx="160" cy="148" rx="118" ry="6" fill="#000" opacity="0.08"/>
  <!-- 각진 SUV 박스형 실루엣 (토레스 EVX) -->
  <path d="M36,136 L40,110 Q44,94 68,90 L108,82 L108,72 Q108,68 114,68 L202,68 Q208,68 208,72 L208,82 L252,92 Q276,98 286,114 L294,130 L294,140 Q294,144 288,144 L252,144 L252,142 A20 20 0 0 0 212,142 L212,144 L124,144 L124,142 A20 20 0 0 0 84,142 L84,144 L42,144 Q36,144 36,138 Z"
        fill="url(#body-torres)" stroke="#CBD5E1" stroke-width="0.6"/>
  <!-- 유리 (각진 SUV 창) -->
  <rect x="114" y="82" width="90" height="30" fill="url(#glass-torres)"/>
  <rect x="114" y="82" width="90" height="30" fill="none" stroke="#334155" stroke-width="0.5"/>
  <!-- B필러 -->
  <line x1="158" y1="82" x2="158" y2="112" stroke="#1E293B" stroke-width="2" opacity="0.7"/>
  <!-- 캐릭터 라인 -->
  <path d="M42,128 Q150,124 294,128" stroke="#94A3B8" stroke-width="1" fill="none" opacity="0.6"/>
  <!-- 사이드 (직선) 라인 -->
  <path d="M55,118 L290,122" stroke="#CBD5E1" stroke-width="0.8" fill="none" opacity="0.7"/>
  <!-- 전조등 (각진) -->
  <path d="M280,120 L294,124 L294,130 L280,130 Z" fill="#FFE58A"/>
  <!-- 후미등 -->
  <rect x="40" y="124" width="6" height="7" rx="1" fill="#FF5A5A"/>
  <!-- 루프랙 -->
  <rect x="114" y="66" width="90" height="2" fill="#475569"/>
  <!-- 바퀴 -->
  <circle cx="104" cy="144" r="17" fill="#1E293B"/>
  <circle cx="104" cy="144" r="10" fill="#475569"/>
  <circle cx="104" cy="144" r="3.5" fill="#CBD5E1"/>
  <circle cx="232" cy="144" r="17" fill="#1E293B"/>
  <circle cx="232" cy="144" r="10" fill="#475569"/>
  <circle cx="232" cy="144" r="3.5" fill="#CBD5E1"/>
  <!-- EV 뱃지 -->
  <rect x="150" y="126" width="20" height="8" rx="2" fill="#1AAD6C"/>
  <text x="160" y="132" text-anchor="middle" font-family="Pretendard, Arial" font-size="6" font-weight="700" fill="#fff">EV</text>
</svg>
