<svg xmlns="http://www.w3.org/2000/svg" viewBox="0 0 320 180" preserveAspectRatio="xMidYMid meet">
  <defs>
    <linearGradient id="bg-porter" x1="0" y1="0" x2="0" y2="1">
      <stop offset="0" stop-color="#FFF3E0"/>
      <stop offset="1" stop-color="#FFE8C8"/>
    </linearGradient>
    <linearGradient id="cab-porter" x1="0" y1="0" x2="0" y2="1">
      <stop offset="0" stop-color="#FBFBFB"/>
      <stop offset="1" stop-color="#D8DFE8"/>
    </linearGradient>
    <linearGradient id="cargo-porter" x1="0" y1="0" x2="0" y2="1">
      <stop offset="0" stop-color="#E2E8F0"/>
      <stop offset="1" stop-color="#94A3B8"/>
    </linearGradient>
  </defs>
  <rect width="320" height="180" fill="url(#bg-porter)"/>
  <ellipse cx="160" cy="150" rx="118" ry="6" fill="#000" opacity="0.08"/>
  <!-- 화물칸 (일반형 박스) -->
  <rect x="46" y="88" width="158" height="54" rx="4" fill="url(#cargo-porter)" stroke="#64748B" stroke-width="0.7"/>
  <!-- 화물칸 라인 -->
  <line x1="58" y1="100" x2="58" y2="140" stroke="#475569" stroke-width="0.6" opacity="0.5"/>
  <line x1="125" y1="90" x2="125" y2="142" stroke="#475569" stroke-width="0.6" opacity="0.5"/>
  <line x1="192" y1="90" x2="192" y2="142" stroke="#475569" stroke-width="0.6" opacity="0.5"/>
  <!-- 운전실 (캐빈) -->
  <path d="M204,142 L204,96 Q204,88 212,88 L236,88 Q246,88 252,96 L270,124 Q276,130 276,138 L276,142 Z"
        fill="url(#cab-porter)" stroke="#64748B" stroke-width="0.7"/>
  <!-- 운전실 유리 -->
  <path d="M216,96 L234,96 Q242,98 247,106 L260,122 L218,122 Z" fill="#6FA3E8" opacity="0.85"/>
  <!-- 사이드 도어 창 -->
  <rect x="208" y="110" width="8" height="14" rx="1" fill="#6FA3E8" opacity="0.7"/>
  <!-- 전조등 -->
  <rect x="268" y="126" width="7" height="6" rx="1" fill="#FFE58A"/>
  <!-- 그릴 -->
  <rect x="262" y="134" width="14" height="3" rx="1" fill="#475569"/>
  <!-- 후미등 -->
  <rect x="48" y="124" width="6" height="6" rx="1" fill="#FF5A5A"/>
  <!-- 화물칸 핸들 -->
  <rect x="52" y="110" width="3" height="10" fill="#475569"/>
  <!-- 바퀴 -->
  <circle cx="82" cy="142" r="15" fill="#1E293B"/>
  <circle cx="82" cy="142" r="8" fill="#334155"/>
  <circle cx="82" cy="142" r="3" fill="#CBD5E1"/>
  <circle cx="240" cy="142" r="15" fill="#1E293B"/>
  <circle cx="240" cy="142" r="8" fill="#334155"/>
  <circle cx="240" cy="142" r="3" fill="#CBD5E1"/>
  <!-- EV 화물 뱃지 -->
  <rect x="90" y="102" width="32" height="10" rx="2" fill="#FF9A2E"/>
  <text x="106" y="109" text-anchor="middle" font-family="Pretendard, Arial" font-size="6.5" font-weight="700" fill="#fff">EV 화물</text>
</svg>
