<svg xmlns="http://www.w3.org/2000/svg" viewBox="0 0 320 180" preserveAspectRatio="xMidYMid meet">
  <defs>
    <linearGradient id="bg-nexo" x1="0" y1="0" x2="0" y2="1">
      <stop offset="0" stop-color="#EBF5FF"/>
      <stop offset="1" stop-color="#D1E7FF"/>
    </linearGradient>
    <linearGradient id="body-nexo" x1="0" y1="0" x2="0" y2="1">
      <stop offset="0" stop-color="#F1F5F9"/>
      <stop offset="1" stop-color="#94A3B8"/>
    </linearGradient>
    <linearGradient id="glass-nexo" x1="0" y1="0" x2="0" y2="1">
      <stop offset="0" stop-color="#7DB0F0" stop-opacity="0.9"/>
      <stop offset="1" stop-color="#4A7FD1" stop-opacity="0.9"/>
    </linearGradient>
  </defs>
  <rect width="320" height="180" fill="url(#bg-nexo)"/>
  <ellipse cx="160" cy="148" rx="118" ry="6" fill="#000" opacity="0.08"/>
  <!-- NEXO 중형 SUV (상대적으로 높고 각진 실루엣) -->
  <path d="M36,134 L48,118 Q60,96 88,90 L124,80 Q162,76 202,80 L244,90 Q270,96 284,114 L296,128 L296,140 Q296,144 290,144 L254,144 L254,142 A20 20 0 0 0 214,142 L214,144 L126,144 L126,142 A20 20 0 0 0 86,142 L86,144 L44,144 Q36,144 36,138 Z"
        fill="url(#body-nexo)"/>
  <!-- 유리 (넓은 SUV 창) -->
  <path d="M88,108 L102,88 Q124,80 154,79 L198,80 Q222,86 240,110 L226,118 Q204,114 178,113 L132,113 Q108,114 88,118 Z"
        fill="url(#glass-nexo)"/>
  <!-- B필러 -->
  <line x1="152" y1="82" x2="152" y2="116" stroke="#475569" stroke-width="2" opacity="0.55"/>
  <!-- 수소 배지 (H2) -->
  <circle cx="160" cy="128" r="9" fill="#2C7BE5"/>
  <text x="160" y="132" text-anchor="middle" font-family="Pretendard, Arial" font-size="9" font-weight="800" fill="#fff">H₂</text>
  <!-- 도어 라인 -->
  <line x1="204" y1="82" x2="204" y2="138" stroke="#64748B" stroke-width="1" opacity="0.4"/>
  <!-- 캐릭터 라인 -->
  <path d="M44,132 Q150,124 294,132" stroke="#94A3B8" stroke-width="1" fill="none" opacity="0.6"/>
  <!-- 전조등 -->
  <path d="M282,118 L294,122 L294,128 L282,128 Z" fill="#FFE58A"/>
  <!-- 후미등 -->
  <rect x="40" y="124" width="7" height="7" rx="1" fill="#FF5A5A"/>
  <!-- 바퀴 -->
  <circle cx="108" cy="144" r="17" fill="#1E293B"/>
  <circle cx="108" cy="144" r="10" fill="#475569"/>
  <circle cx="108" cy="144" r="3.5" fill="#CBD5E1"/>
  <circle cx="234" cy="144" r="17" fill="#1E293B"/>
  <circle cx="234" cy="144" r="10" fill="#475569"/>
  <circle cx="234" cy="144" r="3.5" fill="#CBD5E1"/>
</svg>
