<svg width="16" height="16" viewBox="0 0 16 16" fill="none" xmlns="http://www.w3.org/2000/svg">
<g clip-path="url(#clip0_1374_3191)">
<path d="M1.3335 8H3.3335M3.3335 8C3.3335 10.5773 5.42283 12.6667 8.00016 12.6667M3.3335 8C3.3335 5.42267 5.42283 3.33333 8.00016 3.33333M12.6668 8H14.6668M12.6668 8C12.6668 10.5773 10.5775 12.6667 8.00016 12.6667M12.6668 8C12.6668 5.42267 10.5775 3.33333 8.00016 3.33333M8.00016 1.33333V3.33333M8.00016 12.6667V14.6667M10.0002 8C10.0002 9.10456 9.10473 10 8.00016 10C6.89559 10 6.00016 9.10456 6.00016 8C6.00016 6.89543 6.89559 6 8.00016 6C9.10473 6 10.0002 6.89543 10.0002 8Z" stroke="white" stroke-width="1.33333" stroke-linecap="round" stroke-linejoin="round"/>
</g>
<defs>
<clipPath id="clip0_1374_3191">
<rect width="16" height="16" fill="white"/>
</clipPath>
</defs>
</svg>
