<svg width="64" height="64" viewBox="0 0 64 64" fill="none" xmlns="http://www.w3.org/2000/svg">
<g clip-path="url(#clip0_1996_22912)">
<path d="M0 50.9998L11.806 18.9998H52.194L64 50.9998H0Z" fill="#F6F3F3"/>
<path d="M58 46.9998H6L12.9918 21.9998H51.0082L58 46.9998Z" fill="#ABD785"/>
<path d="M10 28.9998H55" stroke="#F6F3F3" stroke-width="2" stroke-miterlimit="10"/>
<path d="M42 28.9998L44 46.9998" stroke="#F6F3F3" stroke-width="2" stroke-miterlimit="10"/>
<path d="M20 46.9998L23 21.9998" stroke="#F6F3F3" stroke-width="2" stroke-miterlimit="10"/>
<path d="M20 39.9998H58" stroke="#F6F3F3" stroke-width="2" stroke-miterlimit="10"/>
</g>
<g clip-path="url(#clip1_1996_22912)">
<path d="M25.6135 24.0359C25.6135 24.0024 25.6135 23.9713 25.6111 23.9378C25.5806 18.4441 21.2036 14.0007 15.8081 14.0007C10.4126 14.0007 6.03564 18.4441 6.00747 23.9378C6.00747 23.9713 6.00747 24.0024 6.00513 24.0359C5.97931 24.6269 5.85493 31.4343 13.9212 38.658C15.0008 39.627 16.6155 39.627 17.6974 38.658C25.7637 31.4319 25.6393 24.6269 25.6135 24.0359Z" fill="#32CB61"/>
<path d="M15.8073 28.1756C18.073 28.1756 19.9097 26.303 19.9097 23.9931C19.9097 21.6831 18.073 19.8105 15.8073 19.8105C13.5417 19.8105 11.705 21.6831 11.705 23.9931C11.705 26.303 13.5417 28.1756 15.8073 28.1756Z" fill="white"/>
</g>
<g clip-path="url(#clip2_1996_22912)">
<path d="M40.0765 16.9745C40.0765 16.9562 40.0765 16.9392 40.0753 16.9209C40.0591 13.9244 37.7419 11.5007 34.8854 11.5007C32.029 11.5007 29.7118 13.9244 29.6969 16.9209C29.6969 16.9392 29.6969 16.9562 29.6956 16.9745C29.6819 17.2968 29.6161 21.0099 33.8865 24.9501C34.458 25.4787 35.3128 25.4787 35.8856 24.9501C40.156 21.0086 40.0902 17.2968 40.0765 16.9745Z" fill="#487EF9"/>
<path d="M34.8851 19.2319C36.0846 19.2319 37.057 18.2105 37.057 16.9506C37.057 15.6906 36.0846 14.6692 34.8851 14.6692C33.6856 14.6692 32.7133 15.6906 32.7133 16.9506C32.7133 18.2105 33.6856 19.2319 34.8851 19.2319Z" fill="white"/>
</g>
<defs>
<clipPath id="clip0_1996_22912">
<rect width="62" height="31" fill="white" transform="translate(1 19.9998)"/>
</clipPath>
<clipPath id="clip1_1996_22912">
<rect width="19.6154" height="25.3846" fill="white" transform="translate(6 13.9998)"/>
</clipPath>
<clipPath id="clip2_1996_22912">
<rect width="10.3846" height="13.8462" fill="white" transform="translate(29.6924 11.4998)"/>
</clipPath>
</defs>
</svg>
