<svg width="16" height="16" viewBox="0 0 16 16" fill="none" xmlns="http://www.w3.org/2000/svg">
<g clip-path="url(#clip0_1294_12577)">
<path d="M9.43993 4.40046L11.5997 6.56012M2.96055 3.68057L2.96055 6.56012M13.0396 9.43967V12.3192M6.5602 0.801025V2.2408M4.40041 5.12035L1.52069 5.12035M14.4794 10.8794H11.5997M7.28013 1.52091H5.84027M14.9402 1.98167L14.0187 1.06022C13.9377 0.978378 13.8413 0.913411 13.735 0.869072C13.6287 0.824734 13.5147 0.801904 13.3996 0.801904C13.2844 0.801904 13.1704 0.824734 13.0641 0.869072C12.9579 0.913411 12.8614 0.978378 12.7804 1.06022L1.05996 12.78C0.97812 12.861 0.913149 12.9574 0.868808 13.0637C0.824467 13.1699 0.801636 13.2839 0.801636 13.3991C0.801636 13.5142 0.824467 13.6282 0.868808 13.7345C0.913149 13.8408 0.97812 13.9372 1.05996 14.0182L1.98148 14.9396C2.06198 15.0224 2.15824 15.0881 2.26458 15.133C2.37093 15.1779 2.48519 15.201 2.60062 15.201C2.71605 15.201 2.83031 15.1779 2.93665 15.133C3.04299 15.0881 3.13925 15.0224 3.21976 14.9396L14.9402 3.21988C15.023 3.13938 15.0887 3.04312 15.1336 2.93679C15.1785 2.83045 15.2016 2.7162 15.2016 2.60077C15.2016 2.48535 15.1785 2.3711 15.1336 2.26476C15.0887 2.15843 15.023 2.06217 14.9402 1.98167Z" stroke="#5D87FF" stroke-width="1.33333" stroke-linecap="round" stroke-linejoin="round"/>
</g>
<defs>
<clipPath id="clip0_1294_12577">
<rect width="16" height="16" fill="white"/>
</clipPath>
</defs>
</svg>
